# xmcd CD database file
#
# Track frame offsets:
#	150
#	22940
#	38889
#	58544
#	65674
#	81226
#	94507
#	112017
#	129074
#	138869
#
# Disc length: 2064 seconds
#
# Revision: 0
# Processed by: cddbd v1.5.2PL0 Copyright (c) Steve Scherf et al.
# Submitted via: CDex 1.70beta3
#
DISCID=7a080e0a
DTITLE=霧生トシ子 - Jazz Arrange Music World Vol.9 日本の名曲編2
DYEAR=1900
DGENRE=Jazz
TTITLE0=ゆりかごの歌
TTITLE1=雨降りお月さん
TTITLE2=美しき天然
TTITLE3=春の唄
TTITLE4=荒城の月
TTITLE5=花
TTITLE6=われは海の子
TTITLE7=船頭さん
TTITLE8=青い目の人形
TTITLE9=靴が鳴る
EXTD=
EXTT0=
EXTT1=
EXTT2=
EXTT3=
EXTT4=
EXTT5=
EXTT6=
EXTT7=
EXTT8=
EXTT9=
PLAYORDER=
